<svg width="168" height="33" viewBox="0 0 168 33" fill="none" xmlns="http://www.w3.org/2000/svg">
<g clip-path="url(#clip0_258_966)">
<path d="M22.8325 14.1634L17.2409 5.89542H16.0581H15.0544L16.0222 7.33333L21.6855 15.7091C21.5063 15.9608 21.3629 16.2124 21.1837 16.4641L21.0762 16.6438L16.0222 9.20261L13.9433 6.11111C14.6601 5.46405 15.377 4.81699 16.0581 4.27778C19.2482 1.5817 21.7931 0 21.7931 0C21.2554 0.287582 20.7178 0.611111 20.2159 0.93464C18.7105 1.79739 17.3484 2.66013 16.0222 3.52288C14.8394 4.31373 13.7282 5.10457 12.6887 5.93137H11.6134L11.9719 6.47059C11.721 6.68627 11.47 6.86601 11.2191 7.0817L10.4306 5.93137H8.27995L9.85707 8.26797C5.054 12.5098 2.32987 16.6078 1.03949 19.9869C-0.465946 23.9412 0.0358671 26.4935 0.25093 27.2843C0.573524 28.4706 1.14703 29.4052 1.8639 30.1961C5.34075 34.1144 11.3267 33.3235 16.0581 31.8137L16.2373 31.7418C20.3952 30.4118 23.6928 28.3987 23.6928 28.3987C21.112 29.6928 18.4954 30.7353 16.0581 31.3464C10.1797 32.8203 5.19738 31.9216 3.51272 26.9248L3.44103 26.7091C3.19012 25.5948 3.15428 24.3366 3.47687 22.5752C4.40881 17.6144 7.41969 13.085 10.6815 9.45425L16.0222 17.2549L18.5313 20.9575C17.8144 22 16.99 23.1144 16.0222 24.2288C13.6565 26.8889 10.3947 29.3693 6.16516 30.232C6.16516 30.232 11.0041 30.6634 16.0222 28.2549C18.3162 27.1765 20.6461 25.4869 22.5458 22.8987L27.5281 30.232H29.6787L23.6211 21.281C23.7286 21.1013 23.8003 20.9575 23.9079 20.7778C23.9795 20.6699 24.0512 20.5261 24.1588 20.3464L30.8616 30.1961H33.0122L25.1265 18.6569C25.3058 18.3333 25.5208 18.0098 25.7359 17.6863L34.3026 30.232H36.4532L26.8112 16.1046C29.4995 12.1863 33.5857 7.26144 37.8153 6.11111C38.1737 6.00327 37.9586 6.07516 38.783 5.85948C37.4568 5.57189 29.141 5.96732 22.8325 14.1634ZM19.6066 19.3039L16.0581 14.0915L11.936 8.08823C12.1511 7.8366 12.402 7.62091 12.617 7.36928L16.0222 12.366L20.1084 18.3693C19.965 18.6569 19.7858 18.9804 19.6066 19.3039Z" fill="#0D3552"/>
<path d="M49.2495 15.4576V11.8269H47.4573H44.7332V15.4576H47.4573H49.2495Z" fill="#0D3552"/>
<path d="M44.7332 16.6438V27.7516L47.4573 26.8529L49.2853 26.2418V16.6438H47.4573H44.7332Z" fill="#0D3552"/>
<path d="M144.881 15.2777L146.099 11.9346H129.97V27.6797H144.881L146.099 24.4084H134.809V21.3169H144.379L145.418 18.3333H134.809V15.2777H144.881Z" fill="#0D3552"/>
<path d="M109.79 11.7908V15.4574H115.991V27.8235L119.216 26.9967L120.722 26.6012V15.4574H125.668L127.102 11.7908H119.216H109.79Z" fill="#0D3552"/>
<path d="M160.294 20.5262L159.218 19.5197L160.294 18.4772L167.068 11.8628H160.903L160.294 12.438L154.738 17.8301H153.555V11.9347H148.68V27.7157L153.555 26.7451V21.4249H154.738L160.294 26.6373L161.297 27.5719H168L160.294 20.5262Z" fill="#0D3552"/>
<path d="M96.0615 17.794L91.1509 11.7908H87.3156H85.3442L87.3156 14.2712L93.66 22.3594V27.8235L98.3914 26.6372V22.3235L106.635 11.7908H100.793L96.0615 17.794Z" fill="#0D3552"/>
<path d="M63.1927 15.2058H68.9636L70.1823 11.7908H63.1927H57.2427H54.6978V27.8235L57.2427 27.1045L59.6084 26.4574V22.0359H63.1927H68.0675L69.5012 18.5849H63.1927H59.6084V15.2058H63.1927Z" fill="#0D3552"/>
<path d="M79.5016 23.9413V11.9707H74.6985V27.6439H87.3155H87.8173L89.2869 23.9053L87.3155 23.9413H79.5016Z" fill="#0D3552"/>
</g>
<defs>
<clipPath id="clip0_258_966">
<rect width="168" height="33" fill="white"/>
</clipPath>
</defs>
</svg>
